# xmcd CD database file
#
# Track frame offsets:
#	150
#	21527
#	40522
#	60602
#	89567
#	120670
#	130652
#	147300
#	164630
#	183315
#	197415
#
# Disc length: 2913 seconds
#
# Revision: 1
# Processed by: cddbd v1.4PL0 Copyright (c) Steve Scherf et al.
# Submitted via: CDex 1.40Beta8
#
DISCID=980b5f0b
DTITLE=Matthew Lien - Music to See By
DYEAR=1900
DGENRE=Country
TTITLE0=Seasons
TTITLE1=The Last Waltz
TTITLE2=A Tune for a Loon
TTITLE3=Good Company
TTITLE4=Kluane
TTITLE5=Alley Cat
TTITLE6=Very Much to Me
TTITLE7=Hallingdal
TTITLE8=In Search of Home
TTITLE9=Molly Moss
TTITLE10=Heaven's Name
EXTD=ID3G: 2
EXTT0=
EXTT1=
EXTT2=
EXTT3=
EXTT4=
EXTT5=
EXTT6=
EXTT7=
EXTT8=
EXTT9=
EXTT10=
PLAYORDER=
